# xmcd CD database file
#
# Track frame offsets:
#	150
#	21832
#	40975
#	64600
#	89297
#	112825
#	134795
#	159535
#	181197
#	203810
#	229662
#
# Disc length: 3343 seconds
#
# Revision: 0
# Processed by: cddbd v1.5.1PL0 Copyright (c) Steve Scherf et al.
# Submitted via: CDex 1.51
#
DISCID=8d0d0d0b
DTITLE=小野正利 - Tenderness
DYEAR=1994
DGENRE=Blues
TTITLE0=漂流者
TTITLE1=あなたのために歌いたい
TTITLE2=Can't Get the Truth
TTITLE3=Guilty
TTITLE4=君と冬と愛を
TTITLE5=Pretend
TTITLE6=もう一度 君が欲しい
TTITLE7=X Avenue
TTITLE8=最後のエゴイスト
TTITLE9=So Long
TTITLE10=12月のある日
EXTD=YEAR: 1994
EXTT0=
EXTT1=
EXTT2=
EXTT3=
EXTT4=
EXTT5=
EXTT6=
EXTT7=
EXTT8=
EXTT9=
EXTT10=
PLAYORDER=
